<?xml version="1.0" encoding="UTF-8" standalone="no"?>
<!-- Created with Inkscape (http://www.inkscape.org/) -->

<svg
   xmlns:dc="http://purl.org/dc/elements/1.1/"
   xmlns:cc="http://creativecommons.org/ns#"
   xmlns:rdf="http://www.w3.org/1999/02/22-rdf-syntax-ns#"
   xmlns:svg="http://www.w3.org/2000/svg"
   xmlns="http://www.w3.org/2000/svg"
   xmlns:sodipodi="http://sodipodi.sourceforge.net/DTD/sodipodi-0.dtd"
   xmlns:inkscape="http://www.inkscape.org/namespaces/inkscape"
   width="28.664551mm"
   height="28.664551mm"
   viewBox="0 0 101.56731 101.56731"
   id="svg6201"
   version="1.1"
   inkscape:version="0.92.4 (5da689c313, 2019-01-14)"
   sodipodi:docname="SA.svg">
  <title
     id="title7174">Grand Theft Auto: San Andreas</title>
  <defs
     id="defs6203" />
  <sodipodi:namedview
     id="base"
     pagecolor="#ffffff"
     bordercolor="#666666"
     borderopacity="1.0"
     inkscape:pageopacity="0.0"
     inkscape:pageshadow="2"
     inkscape:zoom="2.8284272"
     inkscape:cx="12.94162"
     inkscape:cy="76.361358"
     inkscape:document-units="px"
     inkscape:current-layer="g988"
     showgrid="false"
     fit-margin-top="0"
     fit-margin-left="0"
     fit-margin-right="0"
     fit-margin-bottom="0"
     inkscape:window-width="1920"
     inkscape:window-height="1057"
     inkscape:window-x="-8"
     inkscape:window-y="-8"
     inkscape:window-maximized="1"
     showguides="false" />
  <metadata
     id="metadata6206">
    <rdf:RDF>
      <cc:Work
         rdf:about="">
        <dc:format>image/svg+xml</dc:format>
        <dc:type
           rdf:resource="http://purl.org/dc/dcmitype/StillImage" />
        <dc:title>Grand Theft Auto: San Andreas</dc:title>
        <dc:date>11/11/2016</dc:date>
        <dc:creator>
          <cc:Agent>
            <dc:title>Rockstar Games</dc:title>
          </cc:Agent>
        </dc:creator>
        <dc:publisher>
          <cc:Agent>
            <dc:title>CMetalCore</dc:title>
          </cc:Agent>
        </dc:publisher>
        <dc:source>https://4.bp.blogspot.com/-2gc4d8k8Mxk/VYkAEvzN8BI/AAAAAAAACU4/Pubs75N3MJE/s1600/GTA-San-Andreas-Android-iOS.png</dc:source>
        <dc:language>English</dc:language>
        <dc:rights>
          <cc:Agent>
            <dc:title>Rockstar Games, Inc.</dc:title>
          </cc:Agent>
        </dc:rights>
      </cc:Work>
    </rdf:RDF>
  </metadata>
  <g
     inkscape:label="Capa 1"
     inkscape:groupmode="layer"
     id="layer1"
     transform="translate(-356.6174,-445.6616)">
    <g
       id="g5016">
      <g
         id="g992">
        <g
           id="g970"
           transform="matrix(0.91715811,0.00807135,-0.00807135,0.91715811,193.22731,-25.757174)" />
        <g
           id="g990"
           transform="rotate(3.7440464,1084.0956,1930.661)">
          <g
             id="g988"
             transform="translate(13.828124,-3.7499998)">
            <g
               id="g1023"
               transform="translate(-0.36515087,-5.5800099)">
              <path
                 inkscape:connector-curvature="0"
                 id="path995"
                 d="m 272.40598,509.66002 c -0.61922,0.0165 -1.16293,0.11017 -1.57819,0.22255 -1.10733,0.29961 -1.68128,0.675 -2.13622,0.97654 -0.90987,0.60308 -1.32798,1.05521 -1.7565,1.50769 -0.85703,0.90497 -1.54626,1.81902 -2.2908,2.87667 -1.48909,2.1153 -3.04013,4.68489 -4.29395,7.28875 -2.20692,4.58323 -3.52559,9.71669 -3.46247,14.89167 -3.27525,4.54792 -4.22117,9.84937 -3.89804,15.41378 0.22999,3.96018 1.22675,7.66599 3.08372,10.86675 0.81533,1.40534 1.82444,2.6719 2.96678,3.80793 -3.06067,2.72988 -4.96592,6.40668 -5.89477,10.47442 l 1.2e-4,0.002 -0.004,2.4e-4 c -0.45106,1.97618 -0.46246,4.17248 -0.2237,6.53613 0.43913,4.34715 2.32298,8.7548 5.30801,11.48821 3.16673,2.89978 8.02387,4.30767 12.25812,3.45681 3.52446,-0.70823 6.55331,-2.61905 9.51969,-5.02139 0.28815,0.2195 0.36366,0.27543 0.69886,0.52862 1.06114,0.80157 2.04092,1.52744 2.80409,2.07902 0.38159,0.27579 0.70223,0.50397 0.99668,0.70546 0.14722,0.10074 0.27814,0.18908 0.48316,0.31703 0.10251,0.064 0.21053,0.13354 0.45777,0.26548 0.12362,0.066 0.27447,0.14759 0.58515,0.27732 0.31068,0.12974 0.52627,0.43321 2.26267,0.50702 l 0.0865,0.004 0.0826,1e-4 c 3.07576,0.0518 3.27196,-0.78297 3.69281,-1.05271 0.42084,-0.26975 0.60022,-0.42821 0.75608,-0.5596 0.31173,-0.26278 0.45853,-0.4132 0.61591,-0.57061 0.31476,-0.31483 0.58633,-0.61026 0.89896,-0.95613 0.62527,-0.69174 1.36993,-1.55243 2.15865,-2.48451 0.85499,-1.01038 1.5363,-1.91394 2.32786,-2.89929 0.74173,0.74627 1.64538,1.44681 3.02306,2.00414 3.39486,1.37338 7.52131,1.35285 10.74189,-2.0755 0.56616,-0.60269 1.78668,-2.55006 2.17403,-4.1003 0.62529,0.40004 1.1758,0.75018 2.34648,1.59151 l 7.0262,5.04879 5.93244,-5.91698 c 1.19917,1.02443 2.56383,1.89974 4.3005,2.40131 4.1689,1.20403 8.55194,-0.75361 11.21237,-3.24213 1.82544,-1.70749 2.65572,-3.16554 3.64494,-4.84063 0.4946,-0.83755 0.94183,-1.6655 1.33792,-2.54825 0.39607,-0.88276 0.98341,-1.22987 0.98341,-3.98385 -10e-6,-3.05478 -1.14619,-4.32062 -2.23586,-5.50907 -0.63507,-0.69265 -1.36525,-1.45513 -2.51442,-1.99889 -0.0308,-4.62136 -0.0511,-10.84742 -0.0511,-17.77386 l 2.3e-4,-23.60691 c 0.40353,-0.52775 1.00466,-1.29511 1.23598,-1.55437 0.5441,-0.60982 1.21144,-1.1067 1.95216,-2.9481 0.74073,-1.8414 0.21812,-5.14531 -0.36801,-6.2405 -0.60217,-1.1252 -1.28507,-1.87177 -2.18367,-2.55268 -0.89861,-0.68091 -1.97595,-1.50581 -4.38503,-1.50581 -2.85686,0 -2.77787,0.58662 -3.17411,0.79123 -0.39625,0.20461 -0.62314,0.35164 -0.84821,0.49773 -0.45015,0.29219 -0.83415,0.57055 -1.2627,0.89369 -0.85709,0.6463 -1.84063,1.44309 -2.87355,2.32762 l -0.14924,0.13087 0.94594,0.4629 c -6.28788,-3.06892 -12.82518,-4.23578 -18.8639,-2.38963 -5.23136,1.59933 -9.77041,4.95607 -12.96842,9.4675 -3.5044,4.94368 -5.47386,10.65549 -6.15887,16.982 -0.8493,-0.48302 -1.7944,-0.8821 -2.70272,-1.31497 0.36487,-1.1707 0.6991,-2.24681 1.12717,-3.60975 l 4.10578,-13.08045 -6.10128,-3.42115 c -0.50627,-0.28366 -0.97843,-0.5307 -1.44777,-0.75668 -0.23467,-0.11299 -0.4581,-0.21851 -0.7825,-0.34882 -0.1622,-0.0652 -0.33921,-0.13786 -0.66693,-0.23711 -0.32682,-0.099 -0.47417,-0.39505 -2.35637,-0.28436 -0.81643,0.0473 -1.27696,0.24045 -1.77671,0.41354 -2.26974,-1.45472 -5.45694,-3.52424 -7.13888,-4.63957 -0.91712,-0.60816 -1.79108,-1.18218 -2.47359,-1.62722 -0.68251,-0.44503 -0.3654,-0.32737 -1.63257,-1.02902 -0.96491,-0.53424 -1.95232,-0.75993 -2.83695,-0.81441 -0.22116,-0.0136 -0.43657,-0.0166 -0.64297,-0.0111 z m -0.36033,2.23289 c 0.25451,-0.0277 0.53519,-0.0381 0.83362,-0.0197 0.59686,0.0367 1.26293,0.18943 1.91123,0.54837 0.87592,0.48501 0.81915,0.5073 1.49515,0.94809 0.676,0.44079 1.54556,1.01373 2.45839,1.61905 1.76765,1.17218 5.15178,3.37158 7.44362,4.83798 l 0.69517,0.44444 c 0.38528,-0.28946 0.92257,-0.62414 2.12541,-0.69324 1.24305,-0.0717 1.35948,0.12268 1.58694,0.19158 0.22887,0.0693 0.36211,0.12185 0.4865,0.17184 0.24881,0.0999 0.43998,0.19043 0.64653,0.28983 0.41309,0.1989 0.85777,0.43124 1.32811,0.69478 l 4.5393,2.54533 -3.57156,11.37383 c -0.6422,2.04472 -1.22288,3.90664 -1.69148,5.41742 2.75542,1.16787 5.1707,2.5701 7.31549,4.14174 0.1639,-7.58375 2.04815,-14.09149 6.0115,-19.6826 2.94735,-4.15783 7.03201,-7.17225 11.81371,-8.6341 5.39125,-1.64821 11.28582,-0.65351 17.25533,2.26002 l 0.35252,0.17144 1.24939,-1.06898 c 1.00234,-0.85834 1.96123,-1.63397 2.76724,-2.24175 0.40301,-0.30389 0.75839,-0.5623 1.13445,-0.8064 0.18803,-0.12205 0.37215,-0.23913 0.66088,-0.38822 0.28874,-0.14909 0.25413,-0.54521 2.16262,-0.54521 1.64321,0 2.41031,0.57054 3.05478,1.05889 0.64449,0.48835 1.14056,1.0347 1.56983,1.83683 0.43341,0.80981 0.79427,3.06918 0.26809,4.37722 -0.52617,1.30805 -1.05005,1.74279 -1.55199,2.30536 -0.37527,0.4206 -1.2832,1.55757 -1.66513,2.09073 l -0.12945,0.18096 0.001,24.3555 c 0,7.07444 0.0185,13.50447 0.0505,18.1574 0.004,0.59402 0.009,0.86924 0.0129,1.40291 1.49673,0.30815 2.42718,0.98894 3.08031,1.70129 0.82246,0.89703 1.654,1.87495 1.654,4.02045 0,1.92028 -0.44131,2.3057 -0.78926,3.08119 -0.34794,0.77548 -0.7621,1.54802 -1.22376,2.32976 -0.92331,1.5635 -1.8025,2.99419 -3.25483,4.35268 -2.34261,2.19124 -5.80212,3.68397 -9.0951,2.73292 -2.05321,-0.59299 -3.5388,-1.90799 -4.84317,-3.45944 l -6.23048,6.21357 -5.51075,-3.95891 c -2.80069,-2.01277 -3.79892,-2.54802 -5.53497,-3.17929 -3.9e-4,0.94334 0.0283,1.75423 -0.16179,2.71534 -0.24118,1.21901 -1.20927,2.71666 -1.71551,3.25557 -2.39475,2.54922 -5.61629,2.62675 -8.30718,1.53816 -1.77672,-0.71875 -2.6987,-1.79612 -3.47807,-2.92854 -0.12897,-0.18738 -0.21362,-0.40563 -0.33105,-0.6004 -0.99292,1.36292 -2.54821,3.26833 -4.05347,5.04719 -0.77799,0.91939 -1.51113,1.7665 -2.10913,2.42807 -0.29899,0.33079 -0.55575,0.60794 -0.82176,0.874 -0.13301,0.13304 -0.25593,0.25845 -0.4808,0.44801 -0.11243,0.0948 -0.23782,0.20354 -0.52336,0.38656 -0.28553,0.18302 -0.41979,0.74075 -2.46585,0.70635 l -0.0552,-0.002 -0.057,-0.002 c -1.15446,-0.0491 -1.29999,-0.25101 -1.50844,-0.33801 -0.20844,-0.0871 -0.31055,-0.14146 -0.39575,-0.18696 -0.17047,-0.091 -0.24974,-0.14249 -0.32814,-0.19139 -0.15674,-0.0978 -0.27323,-0.17406 -0.40636,-0.26516 -0.26627,-0.18219 -0.57619,-0.40448 -0.94873,-0.67374 -0.7451,-0.53852 -1.71703,-1.25858 -2.76747,-2.05206 -0.94314,-0.71241 -1.4406,-1.09134 -2.01563,-1.52691 -3.25415,2.87376 -6.44405,4.90997 -9.96512,5.61754 -3.63886,0.73122 -7.59666,-0.41283 -10.33676,-2.92195 -2.66763,-2.44276 -4.19132,-5.98891 -4.60523,-10.08641 -0.22938,-2.2709 -0.21193,-4.09392 0.18238,-5.82146 l 0.002,-1.2e-4 c 1.03872,-4.54896 3.44848,-8.56381 7.29111,-10.89609 -1.8094,-1.35571 -3.42517,-2.95095 -4.60538,-4.98518 -1.70343,-2.93612 -2.5746,-6.14223 -2.79211,-9.8876 -0.31052,-5.34716 0.7579,-10.68172 3.88932,-14.64987 -0.16496,-4.69116 1.19472,-10.28962 3.25757,-14.57365 1.18557,-2.46211 2.69836,-4.96749 4.11087,-6.974 0.70626,-1.00325 1.36237,-1.8618 2.09038,-2.63052 0.364,-0.38435 0.71025,-0.74851 1.37194,-1.18709 0.33084,-0.21928 0.737,-0.48184 1.4946,-0.68683 0.1894,-0.0512 0.41811,-0.0968 0.67261,-0.12475 z"
                 style="fill:#ffffff;fill-opacity:1;stroke:none;stroke-width:13.125;stroke-miterlimit:4;stroke-dasharray:none;stroke-opacity:1;paint-order:stroke fill markers" />
              <path
                 inkscape:connector-curvature="0"
                 d="m 313.04108,550.61868 c -0.11358,-0.28875 -0.28377,-1.52046 -0.37821,-2.73713 l -0.17172,-2.21213 0.79962,0.52393 c 0.53381,0.34977 1.09762,0.46432 1.69611,0.34462 0.49307,-0.0986 0.89649,-0.098 0.89649,10e-4 0,0.23263 -2.41064,4.60444 -2.53891,4.60444 -0.0533,0 -0.18981,-0.23625 -0.30338,-0.525 z m 0.16632,5.3981 c 0.26071,-0.45271 2.33252,-4.04329 4.60403,-7.97907 2.84162,-4.92362 4.03331,-7.25266 3.82006,-7.46591 -0.48697,-0.48698 -2.52317,-0.36302 -3.77208,0.22963 -0.62538,0.29676 -1.62958,1.2011 -2.23155,2.00964 l -1.09449,1.47007 -0.0929,-1.40583 c -0.12134,-1.83525 0.86851,-5.06275 2.05508,-6.70077 0.63591,-0.87784 1.45659,-1.52443 2.59834,-2.04713 1.47737,-0.67637 1.93818,-0.74557 4.01602,-0.60315 l 2.34716,0.16087 0.74587,-1.24572 0.74587,-1.24573 -1.25769,-0.59164 c -0.99719,-0.46909 -1.91014,-0.59336 -4.4077,-0.6 -2.72935,-0.007 -3.32407,0.0845 -4.45356,0.68731 -2.89187,1.54329 -4.95689,4.47362 -6.38812,9.0649 -1.01098,3.24319 -1.01388,9.06637 -0.006,12.27559 0.76939,2.45007 1.80431,4.81492 2.10583,4.81194 0.10558,-9e-4 0.40527,-0.37229 0.66599,-0.825 z m 11.97597,-2.60007 c 0,-0.0698 0.57375,-1.18358 1.275,-2.475 l 1.275,-2.34803 0.0897,2.07023 c 0.11709,2.70111 0.0283,2.87977 -1.43032,2.87977 -0.66518,0 -1.20942,-0.0571 -1.20942,-0.12697 z m 5.325,3.14538 c 0.0412,-0.0101 0.0739,-4.30466 0.0725,-9.54341 l -0.002,-9.525 -3.84496,7.2 c -2.11472,3.96 -4.54362,8.422 -5.39754,9.91556 -0.85393,1.49355 -1.5526,2.77896 -1.5526,2.85645 0,0.10105 10.09842,-0.74976 10.725,-0.9036 z m -5.925,13.18159 c 0,-0.51892 -0.19258,-0.597 -1.425,-0.57775 l -1.425,0.0223 1.2,0.5555 c 1.54803,0.71661 1.65,0.71661 1.65,0 z m -1.65,3.01711 c -1.12657,-0.42152 -4.67766,-1.71433 -5.47683,-1.9939 -0.26807,-0.0938 1.66301,-4.04861 2.02683,-4.15094 0.2475,-0.0696 2.17125,-0.21795 4.275,-0.32963 l 3.825,-0.20306 v 2.89385 c 0,2.67247 -0.0563,2.95017 -0.73636,3.6302 -0.88332,0.88333 -1.86059,0.92165 -3.91364,0.15348 z m 4.38718,3.72406 c 0.53095,-0.22625 1.47161,-0.92375 2.09036,-1.55 l 1.125,-1.13863 v -5.22637 -5.22637 l -1.125,0.16864 c -0.61875,0.0928 -3.66692,0.39799 -6.77373,0.67831 l -5.64872,0.50969 -1.77628,3.54343 c -0.97694,1.94889 -1.77627,3.65915 -1.77627,3.80057 0,0.14142 0.50625,0.4093 1.125,0.59528 0.61875,0.18599 2.94001,1.21985 5.15834,2.29748 4.31713,2.0972 5.66721,2.37213 7.6013,1.54797 z m -23.01164,10.06817 c -1.07804,-0.43611 -2.17739,-2.03345 -2.3941,-3.47858 -0.6008,-4.00643 1.41003,-9.93934 5.74265,-16.94354 0.88888,-1.43697 1.69544,-2.81935 1.79237,-3.07194 0.10883,-0.28358 -0.4067,-1.1827 -1.34764,-2.35039 -2.8058,-3.48196 -4.21882,-8.59262 -4.21882,-15.25874 0,-7.39677 1.64584,-13.07506 5.27279,-18.19161 2.45137,-3.45815 5.64187,-5.79596 9.53382,-6.9858 4.11008,-1.25653 8.72894,-0.59689 14.0685,2.00918 l 2.92511,1.42765 3.42481,-2.93279 c 1.88365,-1.61303 3.63385,-2.93278 3.88934,-2.93278 0.25549,0 0.60713,0.26645 0.78142,0.59212 0.26241,0.49032 0.14312,0.78687 -0.6939,1.725 -0.55593,0.62308 -1.43628,1.72688 -1.95634,2.45289 l -0.94555,1.32001 v 25.75499 c 0,14.16524 0.0798,25.75499 0.17732,25.75499 0.0975,0 0.72931,-0.4725 1.40399,-1.05 0.67468,-0.5775 1.45147,-1.05 1.7262,-1.05 0.63498,0 1.49249,0.93525 1.49249,1.62781 0,1.0824 -2.45761,5.24397 -3.88566,6.57975 -3.4275,3.20603 -6.53824,2.30761 -9.36742,-2.70543 l -0.93447,-1.65578 -3.67561,3.66678 -3.67561,3.66679 -2.50561,-1.80072 c -3.38365,-2.43173 -4.7918,-3.20169 -7.52771,-4.11604 -2.49387,-0.83346 -3.43599,-0.79347 -4.32001,0.18336 -0.4368,0.48266 -0.53827,1.14092 -0.54708,3.54882 -0.01,2.70805 -0.0719,3.02125 -0.73811,3.73045 -0.76064,0.80971 -2.19925,1.00862 -3.49717,0.48355 z m -26.18846,-47.21233 c -0.47214,-0.17462 -1.22979,-0.71131 -1.68366,-1.19264 -0.72907,-0.77317 -0.81575,-1.02961 -0.74381,-2.20081 0.14023,-2.28327 0.22204,-2.31525 2.61455,-1.02205 3.07465,1.66192 2.99897,1.56345 2.49813,3.25008 -0.36042,1.21377 -0.52719,1.42932 -1.12497,1.45397 -0.38598,0.0163 -1.08811,-0.11394 -1.56024,-0.28855 z m 5.71027,-0.32049 c 0.63069,-1.99073 1.03059,-3.68763 0.88868,-3.77088 -0.1419,-0.0833 -2.6009,-1.61333 -5.46445,-3.40016 -2.86353,-1.78683 -5.23604,-3.20278 -5.27222,-3.14654 -0.0361,0.0562 -0.34123,0.86973 -0.67789,1.80779 -1.99479,5.55823 -0.85115,9.57316 3.24949,11.40787 1.11612,0.49936 4.01648,0.96154 5.19431,0.82771 l 0.93538,-0.10623 1.1467,-3.61951 z m -5.43623,17.26192 c 0.27252,-0.83092 0.45429,-1.54756 0.40393,-1.59253 -0.0504,-0.045 -0.96093,-0.16654 -2.02349,-0.27017 -4.17363,-0.40707 -7.16348,-2.50522 -9.60888,-6.74313 l -1.24551,-2.15847 0.27916,1.77559 c 0.43496,2.76665 0.86032,4.06789 1.87569,5.73806 1.1401,1.87536 2.99939,3.45595 4.97335,4.22792 1.48978,0.58261 4.3476,1.01224 4.67284,0.70249 0.0976,-0.093 0.40039,-0.84884 0.67291,-1.67976 z m 3.86384,15.92233 c -0.89053,-0.42943 -1.62674,-0.91509 -1.63603,-1.07927 -0.009,-0.16416 0.26918,-0.59942 0.61884,-0.96726 0.51798,-0.54492 0.81897,-0.64503 1.62508,-0.54055 1.37311,0.17798 2.05872,1.12139 1.65489,2.27714 -0.16294,0.46631 -0.37442,0.9025 -0.46996,0.96929 -0.0955,0.0668 -0.90231,-0.22992 -1.79282,-0.65935 z m 3.95695,1.72751 c 0.53309,-0.97816 0.90547,-2.10405 0.94797,-2.86626 0.0653,-1.17094 -0.006,-1.32307 -1.05941,-2.26368 -1.26336,-1.128 -3.26425,-1.60485 -5.54965,-1.3226 l -1.26662,0.1564 -0.82859,2.24879 c -0.45573,1.23684 -0.73005,2.27737 -0.6096,2.31231 0.12045,0.035 1.75059,0.82958 3.62254,1.76589 1.87195,0.9363 3.50746,1.67486 3.63446,1.64121 0.12699,-0.0336 0.626,-0.78607 1.1089,-1.67209 z m 6.26834,3.36075 c 3.5213,-6.24891 4.80509,-11.74458 3.60508,-15.43273 -1.37975,-4.24063 -5.62495,-6.91906 -11.56264,-7.29521 l -1.77965,-0.11275 -0.47943,1.58868 c -0.63758,2.11273 -0.60913,2.22842 0.53221,2.16381 3.06079,-0.17326 7.68544,1.4161 9.34427,3.21135 2.79492,3.0248 2.17291,8.51168 -1.68905,14.89941 l -1.14313,1.89077 0.92215,0.64581 c 0.50719,0.3552 0.94123,0.64611 0.96455,0.64647 0.0234,10e-4 0.60186,-0.99216 1.28564,-2.20561 z m -24.2356,8.03206 c -1.37561,-0.85187 -0.62767,-3.94878 0.88372,-3.6591 0.97768,0.18738 3.08254,1.5913 3.10988,2.07425 0.0238,0.41961 -1.46094,1.39791 -2.67447,1.76229 -0.42867,0.12872 -0.93467,0.0603 -1.31913,-0.17744 z m 3.2062,1.63542 c 0.94963,-0.52104 2.33428,-1.57311 3.07702,-2.33791 l 1.35043,-1.39052 -1.26602,-0.91343 c -2.27026,-1.63797 -5.08124,-3.16345 -6.33881,-3.43999 -1.00391,-0.22075 -1.37081,-0.19406 -1.98326,0.14433 -1.57915,0.8725 -2.37909,3.47713 -1.82493,5.94205 0.78316,3.48358 3.07846,4.13924 6.98557,1.99548 z m 13.11702,2.80521 c -5.43305,-4.10393 -4.57825,-3.92246 -7.23157,-1.535 -6.05875,5.45164 -10.97643,6.43986 -14.76829,2.96764 -2.03959,-1.86766 -2.84718,-3.70593 -3.21119,-7.30945 -0.21085,-2.08738 -0.18732,-3.17936 0.0947,-4.41493 0.82984,-3.63417 2.90853,-6.78697 5.44444,-8.25775 1.91192,-1.10888 2.9889,-1.27232 5.75036,-0.87263 2.34393,0.33925 2.49157,0.33147 3.16547,-0.16669 0.38878,-0.2874 0.90955,-1.05145 1.15728,-1.69787 l 0.4504,-1.1753 -2.1344,-0.17094 c -5.75386,-0.46082 -9.14021,-2.41137 -11.62658,-6.69698 -1.39963,-2.41247 -2.01671,-4.63384 -2.20954,-7.95416 -0.25495,-4.39025 0.99668,-9.28748 3.01363,-11.79104 0.78369,-0.97276 0.92304,-1.35996 0.8641,-2.40106 -0.17967,-3.17412 1.21886,-9.50798 2.8451,-12.88528 2.101,-4.36323 5.74526,-9.54001 6.44364,-9.15334 0.20348,0.11267 1.84983,1.18619 3.65855,2.38559 1.80873,1.19941 5.18486,3.39405 7.50253,4.87698 l 4.21394,2.69624 0.49677,-1.12691 c 0.27322,-0.61981 0.59271,-1.13234 0.70996,-1.13898 0.11725,-0.007 0.86654,0.35401 1.66507,0.80144 l 1.4519,0.81351 -2.51161,7.99673 c -1.38138,4.39821 -2.582,8.27391 -2.66803,8.6127 -0.14198,0.55916 0.11729,0.72659 2.81125,1.81577 6.98429,2.82372 11.4512,6.66966 13.23314,11.39355 0.96738,2.56452 1.35273,6.43006 0.93171,9.3464 -0.8211,5.68766 -4.29617,13.57127 -8.65077,19.62529 -1.57472,2.18928 -6.70437,8.25125 -6.97831,8.24664 -0.0941,-0.004 -1.85511,-1.27519 -3.91366,-2.83017 z"
                 style="fill:#ffffff;fill-opacity:1;stroke:none;stroke-width:8.71875;stroke-miterlimit:4;stroke-dasharray:none;stroke-opacity:1;paint-order:stroke fill markers"
                 id="path986" />
            </g>
          </g>
        </g>
      </g>
    </g>
  </g>
</svg>
