<?xml version="1.0" encoding="UTF-8" standalone="no"?>
<svg
   xmlns:dc="http://purl.org/dc/elements/1.1/"
   xmlns:cc="http://creativecommons.org/ns#"
   xmlns:rdf="http://www.w3.org/1999/02/22-rdf-syntax-ns#"
   xmlns:svg="http://www.w3.org/2000/svg"
   xmlns="http://www.w3.org/2000/svg"
   xmlns:sodipodi="http://sodipodi.sourceforge.net/DTD/sodipodi-0.dtd"
   xmlns:inkscape="http://www.inkscape.org/namespaces/inkscape"
   height="344.01111"
   width="344.01111"
   version="1.1"
   id="svg298"
   sodipodi:docname="V.svg"
   inkscape:version="0.92.4 (5da689c313, 2019-01-14)">
  <metadata
     id="metadata302">
    <rdf:RDF>
      <cc:Work
         rdf:about="">
        <dc:format>image/svg+xml</dc:format>
        <dc:type
           rdf:resource="http://purl.org/dc/dcmitype/StillImage" />
        <dc:title></dc:title>
      </cc:Work>
    </rdf:RDF>
  </metadata>
  <sodipodi:namedview
     pagecolor="#ffffff"
     bordercolor="#666666"
     borderopacity="1"
     objecttolerance="10"
     gridtolerance="10"
     guidetolerance="10"
     inkscape:pageopacity="0"
     inkscape:pageshadow="2"
     inkscape:window-width="1920"
     inkscape:window-height="1057"
     id="namedview300"
     showgrid="false"
     inkscape:pagecheckerboard="true"
     inkscape:zoom="2.1326193"
     inkscape:cx="193.66541"
     inkscape:cy="172.32567"
     inkscape:window-x="-8"
     inkscape:window-y="-8"
     inkscape:window-maximized="1"
     inkscape:current-layer="g2787"
     fit-margin-top="0"
     fit-margin-left="0"
     fit-margin-right="0"
     fit-margin-bottom="0" />
  <defs
     id="defs10">
    <clipPath
       id="b"
       clipPathUnits="userSpaceOnUse">
      <path
         d="m 5334.61,2676.41 v -4.19 c -170.97,-4.01 -231.52,-144.36 -193.23,-295.47 24.47,-96.6 456.6,-909.18 456.6,-909.18 l 366.45,829.53 c 0,0 132.68,277.57 -226.7,370.31 v 12.08 h 696.49 v -3.2 c 0,0 -176.07,-1.61 -302.95,-203.2 C 6004.4,2271.51 5396.73,918.78 5396.73,918.78 h -17.06 l -462.1,878.463 -251.19,474.33 c 0,0 -154.33,351.2 -382.96,386.63 v 18.21 h 1051.19 z"
         id="path2"
         inkscape:connector-curvature="0"
         style="clip-rule:evenodd" />
    </clipPath>
    <linearGradient
       id="a"
       gradientUnits="userSpaceOnUse"
       x2="108.176"
       gradientTransform="rotate(-60.819987,466.13543,-282.88912)"
       x1="-108.176">
      <stop
         stop-color="#fff"
         offset="0"
         id="stop5" />
      <stop
         stop-color="#4b8821"
         offset="1"
         id="stop7" />
    </linearGradient>
    <filter
       style="color-interpolation-filters:sRGB"
       inkscape:label="Greyscale"
       id="filter2431">
      <feColorMatrix
         values="0 3.17708 0 -0.36 0 0 3.17708 0 -0.36 0 0 3.17708 0 -0.36 0 0 0 0 1 0 "
         id="feColorMatrix2429" />
    </filter>
    <filter
       style="color-interpolation-filters:sRGB"
       inkscape:label="Greyscale"
       id="filter2435">
      <feColorMatrix
         values="0 3.17708 0 -0.36 0 0 3.17708 0 -0.36 0 0 3.17708 0 -0.36 0 0 0 0 1 0 "
         id="feColorMatrix2433" />
    </filter>
    <filter
       style="color-interpolation-filters:sRGB"
       inkscape:label="Greyscale"
       id="filter2439">
      <feColorMatrix
         values="0 3.17708 0 -0.36 0 0 3.17708 0 -0.36 0 0 3.17708 0 -0.36 0 0 0 0 1 0 "
         id="feColorMatrix2437" />
    </filter>
    <filter
       style="color-interpolation-filters:sRGB"
       inkscape:label="Greyscale"
       id="filter2443">
      <feColorMatrix
         values="0 3.17708 0 -0.36 0 0 3.17708 0 -0.36 0 0 3.17708 0 -0.36 0 0 0 0 1 0 "
         id="feColorMatrix2441" />
    </filter>
    <filter
       style="color-interpolation-filters:sRGB"
       inkscape:label="Greyscale"
       id="filter2447">
      <feColorMatrix
         values="0 3.17708 0 -0.36 0 0 3.17708 0 -0.36 0 0 3.17708 0 -0.36 0 0 0 0 1 0 "
         id="feColorMatrix2445" />
    </filter>
    <filter
       style="color-interpolation-filters:sRGB"
       inkscape:label="Greyscale"
       id="filter2451">
      <feColorMatrix
         values="0 3.17708 0 -0.36 0 0 3.17708 0 -0.36 0 0 3.17708 0 -0.36 0 0 0 0 1 0 "
         id="feColorMatrix2449" />
    </filter>
  </defs>
  <g
     transform="translate(-358.81423,-454.70794)"
     id="g296">
    <g
       transform="matrix(0.125,0,0,-0.125,-137.431,899.462)"
       id="g212" />
    <g
       id="g2787"
       transform="translate(-4.5824865e-6,-46.413051)">
      <g
         id="g2851"
         transform="matrix(1.0872357,0,0,1.0872357,-42.55518,-58.720665)">
        <g
           style="fill-rule:evenodd"
           id="g42">
          <path
             inkscape:connector-curvature="0"
             style="fill:#fefefe;fill-opacity:1"
             id="path36"
             d="m 556.886,676.099 30.5488,-70.1262 c 2.0325,-4.66625 3.66,-12.1612 2.91375,-17.2312 -1.08875,-7.405 -14.985,-9.86 -20.905,-10.1338 l -10.4462,-0.48375 v -30.59 h 124.309 v 31.6725 l -11.6238,-0.76875 c -2.82125,-0.1875 -6.72125,0.725 -9.415,1.585 -7.2675,2.32375 -13.4225,6.67875 -17.8188,12.9362 -4.36625,6.215 -7.82,13.2175 -11.3912,19.9112 -12.1,22.6712 -22.85,46.0588 -33.0975,69.6162 -11.3875,26.18 -23.2488,52.1538 -35.5,77.94 -5.125,10.7862 -10.285,21.5572 -15.6275,32.2389 l -3.0275,6.05374 h -27.73 l -60.8662,-116.308 -35.895,-67.9262 c -2.82875,-5.35375 -5.83,-10.625 -9.1075,-15.7175 -2.00375,-3.1125 -4.46875,-6.9475 -7.13875,-9.50375 -2.09625,-2.0075 -4.0775,-4.2275 -6.31625,-6.0675 -4.11125,-3.37875 -10.4425,-4.0125 -15.5562,-4.4575 l -9.745,-0.8475 -0.79,-30.0775 h 172.26 v 30.9638 h -10.93 c -2.73625,0 -6.11875,0.71625 -8.6925,1.6375 -3.2725,1.17 -6.4325,2.97375 -7.16125,6.64375 -0.65875,3.3275 0.0738,8.5025 0.92125,11.785 0.405,1.5675 1.38875,3.485 2.0525,4.9825 1.695,3.82625 3.4875,7.60875 5.295,11.3825 5.0575,10.555 10.29,21.0262 15.5512,31.4825 4.9425,9.82 9.91875,19.6225 14.93,29.4075" />
          <path
             inkscape:connector-curvature="0"
             style="fill:none"
             id="path38"
             d="m 533.99,575.126 c -3.105,0.03 -7.03375,0.8175 -9.92125,1.85125 -4.5775,1.63625 -8.47875,4.34625 -9.51375,9.37125 -0.7425,3.895 0.015,9.66 0.9675,13.4088 0.43,1.6425 1.55375,3.9775 2.24875,5.5475 1.70875,3.85625 3.51875,7.6775 5.34125,11.4812 5.06625,10.5738 10.3112,21.0738 15.5812,31.5462 6.1,12.12 12.2562,24.22 18.4612,36.29 l 33.6262,-77.1912 c 2.2875,-5.33875 4.02375,-13.49 3.18,-19.2212 -1.43875,-9.78625 -16.4675,-12.8862 -24.3475,-13.25 l -6.965,-0.32375 v -23.4512 h 117.006 v 24.12 l -7.73125,-0.51125 c -3.2725,-0.15 -7.70625,0.77375 -10.7675,1.75125 -8.04875,2.5725 -14.675,7.5425 -19.6962,14.315 -4.18625,6.29625 -8.0775,13.645 -11.6238,20.2912 -12.1062,22.685 -22.9725,46.3112 -33.225,69.8788 -11.3688,26.1375 -23.2162,52.0838 -35.45,77.8288 -5.11,10.7538 -10.2675,21.5231 -15.5938,32.1731 l -2.01875,4.03563 h -23.2638 l -59.845,-114.356 -35.8975,-67.9325 c -2.87125,-5.43125 -5.9425,-10.8225 -9.26625,-15.9875 -2.10125,-3.26625 -4.88125,-7.4825 -7.68375,-10.165 -2.14125,-2.05 -4.24375,-4.3775 -6.5225,-6.25125 -4.82625,-3.96625 -11.5512,-4.75125 -17.5588,-5.27375 l -6.49625,-0.565 -0.60625,-23.0712 h 164.86 v 23.6612 h -7.27875" />
          <path
             inkscape:connector-curvature="0"
             style="fill:#000000;fill-opacity:1"
             id="path40"
             d="m 383.906,558.767 h 150.06 v 9.05625 c 0,0 -23.185,10e-4 -26.5662,17.0675 0,0 -1.45,6.84375 1.045,16.665 2.49625,9.8225 49.2688,100.069 49.2688,100.069 l 39.77,-91.2925 c 0,0 5.3125,-12.2375 3.7025,-23.185 -1.61,-10.9488 -13.8462,-18.6775 -31.2362,-19.4825 v -9.1775 h 102.402 v 9.01625 c 0,0 -21.8975,-1.44875 -36.8712,19.16 0,0 -17.8725,23.9912 -45.5662,91.4538 -27.6938,60.2175 -50.8788,109.648 -50.8788,109.648 h -14.33 L 466.9032,677.3123 430.997,609.3661 c -11.2712,-21.7 -20.9238,-39.285 -46.8538,-41.54 l -0.2375,-9.05875" />
        </g>
        <path
           d="m 594.673,710.207 0.0775,-0.34 0.1475,-0.32875 c 3.45875,-7.7025 8.83375,-16.5825 16.6162,-20.5875 -1.2875,-0.375 -2.6375,-0.58375 -3.97125,-0.67875 -2.175,-0.155 -4.95,-0.0325 -7.09875,0.45375 l -5.96875,1.38 5.78,-12.045 c -37.96,-11.9562 -100.988,-11.7825 -138.954,0.0638 -0.925,0.315 -1.97375,0.63125 -2.35375,0.78 0.225,2.4125 3.1525,7.38625 3.3575,10.0775 l -1.11,-0.25625 c -2.14875,-0.48625 -4.92375,-0.60875 -7.0975,-0.45375 -1.335,0.095 -2.68375,0.30375 -3.9725,0.67875 7.7825,4.005 13.1575,12.885 16.6162,20.5875 l 0.1475,0.32875 0.0775,0.34 c 0.34875,1.45125 1.19875,3.24125 2.06875,4.43125 1.53,2.0925 3.33375,2.96125 5.9275,2.385 l 3.95125,-0.87875 2.14,4.5025 -2.81375,2.615 c -1.44375,1.34125 -3.73375,1.91375 -5.65125,1.9125 -4.5325,-0.003 -8.9625,-2.74625 -12.35,-5.51875 -6.5,-5.32125 -14.825,-10.2488 -23.4725,-11.0088 0.23125,1.5425 0.935,3.55 1.4375,4.845 1.06,2.72625 0.60625,5.93625 -0.805,8.4525 -1.85125,3.29875 -3.63625,6.19375 -6.29625,8.94375 -3.92625,4.05625 -8.71375,6.6925 -14.17,8.1 -11.4588,2.96 -19.3212,0.73625 -20.905,-11.9375 -0.56625,-4.5225 0.0113,-8.80125 0.87,-13.235 0.5425,-2.805 1.45625,-6.44875 1.2575,-9.28875 -0.12625,-1.7975 -0.1625,-3.5975 -0.29875,-5.39625 -0.17125,-2.2475 -0.48,-4.45375 -0.97625,-6.65375 -1.54625,-6.845 -4.78,-13.2162 -8.64375,-19.03 l -0.34875,-0.525 -0.1525,-0.61 c -0.5275,-2.115 -0.14375,-5.11375 0.355,-7.1775 1.45125,-6.01 5.14875,-11.6912 9.095,-16.3538 4.09625,-4.8425 8.12,-9.16875 12.9575,-13.3062 12.815,-10.9638 28.52,-17.6662 44.395,-22.9038 47.6475,-15.7175 104.916,-15.7162 152.565,0 11.8062,3.895 24.3262,8.6475 34.8975,15.2862 6.9525,4.36375 12.2988,9.1725 17.6812,15.3188 1.6175,1.84625 3.18875,3.73125 4.77375,5.605 3.945,4.6625 7.6425,10.3438 9.09375,16.3538 0.49875,2.06375 0.88375,5.0625 0.355,7.1775 l -0.1525,0.61 -0.34875,0.525 c -3.8625,5.81375 -7.0975,12.185 -8.64375,19.03 -0.49625,2.2 -0.80375,4.40625 -0.975,6.65375 -0.1375,1.79875 -0.1725,3.59875 -0.29875,5.39625 -0.2,2.84 0.71375,6.48375 1.2575,9.28875 0.8575,4.43375 1.435,8.7125 0.86875,13.235 -1.58375,12.6738 -9.445,14.8975 -20.905,11.9375 -5.455,-1.4075 -10.2438,-4.04375 -14.1688,-8.1 -2.66125,-2.75 -4.44625,-5.645 -6.29625,-8.94375 -1.41125,-2.51625 -1.865,-5.72625 -0.80625,-8.4525 0.50375,-1.295 1.2075,-3.3025 1.4375,-4.845 -8.6475,0.76 -16.9712,5.6875 -23.4725,11.0088 -3.3875,2.7725 -7.8175,5.51625 -12.35,5.51875 -1.9175,0.001 -4.2075,-0.57125 -5.65125,-1.9125 l -1.63875,-1.52375 1.635,-5.445 3.28125,0.73 c 2.59375,0.57625 4.39875,-0.2925 5.92875,-2.385 0.87,-1.19 1.71875,-2.98 2.0675,-4.43125"
           id="path214"
           style="fill-rule:evenodd;filter:url(#filter2447)"
           inkscape:connector-curvature="0" />
        <path
           d="m 620.341,690.747 c 0,0 -11.7012,-2.89875 -22.1125,20.2875 0,0 -2.68375,11.7 -12.3438,9.5525 0,0 3.86375,3.5425 13.2025,-3.75625 28.2675,-24.2188 48.185,-5.66125 46.055,-1.48625 -0.29,0.12625 -1.375,-3.22125 -2.7475,-3.355 -1.85625,-0.18 -3.83125,-0.7025 -4.7725,-2.45875 l -9.0425,-1.2075 c 0,0 -0.12875,2.28625 -1.74125,6.49 -0.6475,1.64625 -0.31875,3.73125 0.58625,5.345 2.46875,4.4 6.7625,12.3438 18.195,15.295 11.4312,2.9525 15.295,-0.2675 16.3688,-8.855 1.07375,-8.5875 -2.57625,-16.2075 -2.14625,-22.3262 0.43,-6.1175 -0.3225,-16.53 10.52,-32.8462 0,0 1.93125,-7.72875 -8.695,-20.2875 -10.62625,-12.55875 -18.355,-22.2188 -55.71,-35.1 -47.0862,-14.8325 -103.19,-14.835 -150.276,0 -23.1275,7.975 -35.0325,15.2525 -43.1662,22.21 -5.0025,4.28125 -8.49625,8.1075 -12.5425,12.89 -10.6275,12.5588 -8.695,20.2875 -8.695,20.2875 10.8412,16.3162 10.09,26.7288 10.5188,32.8462 0.43,6.11875 -3.21875,13.7388 -2.14625,22.3262 1.07375,8.5875 4.93875,11.8075 16.37,8.855 11.4312,-2.95125 15.725,-10.895 18.1938,-15.295 0.905,-1.61375 1.235,-3.69875 0.58625,-5.345 -1.6125,-4.20375 -1.74,-6.49 -1.74,-6.49 l -9.04375,1.2075 c -0.94125,1.75625 -2.915,2.27875 -4.77125,2.45875 -1.37375,0.13375 -2.4575,3.48125 -2.74875,3.355 -2.12875,-4.175 17.7888,-22.7325 46.055,1.48625 9.33875,7.29875 13.2025,3.75625 13.2025,3.75625 -9.66,2.1475 -12.3438,-9.5525 -12.3438,-9.5525 -10.4112,-23.1862 -22.1112,-20.2875 -22.1112,-20.2875 6.33125,-8.9075 20.715,-5.58 20.715,-5.58 l -0.85875,-3.1125 c -2.97,-1.53875 -12.0188,-3.385 -8.90875,-4.61625 39.6462,-15.6862 117.128,-16.0812 157.146,0 l -8.90875,4.61625 -0.85875,3.1125 c 0,0 14.3838,-3.3275 20.7162,5.58"
           id="path216"
           style="fill:#ffffff;fill-rule:evenodd;filter:url(#filter2443)"
           inkscape:connector-curvature="0" />
        <g
           style="fill:#231f20;fill-rule:evenodd;filter:url(#filter2439)"
           id="g266">
          <path
             inkscape:connector-curvature="0"
             id="path218"
             d="m 669.826,671.16 c 0,0 0.21375,-13.2562 -14.545,-25.3325 0,0 10.8688,11.5938 13.7125,23.025 0,0 -3.81,-12.505 -13.8462,-20.18 0,0 12.5588,14.4375 13.2562,21.8438 0,0 -5.09875,-13.9 -16.1538,-20.9312 0,0 15.08,14.8138 15.4025,23.5088 0,0 -3.9175,-11.9688 -14.2762,-19.6975 0,0 12.0762,13.2562 12.8275,20.3412 0,0 -3.27375,-9.5 -12.0225,-15.6188 0,0 11.0562,12.935 11.1638,18.4625 0,0 -2.5225,-9.07 -11.8612,-15.94 0,0 11.3838,13.235 11.1638,17.335 0,0 -3.275,-8.1025 -10.8425,-13.47 0,0 9.76875,11.4312 10.2512,16.8525 0,0 -3.54125,-8.5875 -10.4112,-13.6862 0,0 8.9625,10.7338 9.55375,15.5638 0,0 -5.20625,-10.8412 -12.7738,-15.1875 0,0 9.9825,10.09 12.1288,17.335 0,0 -6.44,-11.6462 -15.1888,-16.5312 0,0 12.6662,11.5938 14.545,18.0338 0,0 -5.3675,-9.23125 -12.4512,-13.4712 0,0 9.12375,8.1575 11.5925,16.1012 0,0 -3.435,-7.1925 -11.3788,-12.6662 0,0 10.305,10.9488 10.895,15.135 0,0 -3.43375,-6.81625 -9.39125,-10.6812 0,0 8.82875,10.11 8.90875,13.6862 0,0 -3.3275,-5.68875 -8.90875,-10.1438 0,0 8.4025,10.6388 8.64,12.9888 0,0 -6.97625,-10.8412 -13.5238,-14.0075 0,0 11.645,10.9475 13.3638,17.4962 0,0 -6.91125,-10.0762 -13.6188,-14.1025 0,0 11.8725,12.5625 12.8262,15.6188 0,0 -6.49375,-8.105 -10.2512,-10.2512 0,0 9.6425,10.0288 11.0025,15.51 0,0 -7.40625,-11.7525 -12.935,-13.9 0,0 11.9162,10.0112 14.4388,22.2475 l 0.51,1.8525 0.17375,-0.025 c 0,0 -6.97,-20.8712 5.7275,-42.2762 0,0 2.095,-3.45375 2.46375,-4.0125 l -0.1675,-0.825" />
          <path
             inkscape:connector-curvature="0"
             id="path220"
             d="m 607.169,681.281 -6.94875,1.72875 -0.41875,1.5175 7.3675,-3.24625" />
          <path
             inkscape:connector-curvature="0"
             id="path222"
             d="m 608.645,683.025 c 0,0 -4.38,0.83875 -5.625,1.65375 l 2.995,-0.11875 c 0,0 0.16125,-0.6225 2.63,-1.535" />
          <path
             inkscape:connector-curvature="0"
             id="path224"
             d="m 605.29,679.831 c -0.10875,-0.21 10.7875,3.38125 13.6325,4.535 l -3.9175,1.77125 c 0,0 6.0375,-0.8575 7.54125,-0.51 1.5025,0.35 1.74375,1.15375 1.74375,1.15375 0,0 -3.83625,-0.15375 -6.655,1.17125 0,0 8.8825,-0.285 10.815,0.44 1.9325,0.725 2.2275,1.4225 2.2275,1.4225 0,0 -11.0562,-0.1075 -14.6788,1.95875 0,0 10.0638,-1.85125 15.3762,-0.6175 5.31375,1.235 11.0025,5.85 11.0025,5.85 0,0 -10.17,-7.99625 -26.2175,-2.415 0,0 18.1938,-4.07875 26.0838,5.20625 0,0 -11.2712,-9.285 -27.8012,-1.61 0,0 19.6975,-5.42 28.3912,4.61625 0,0 -11.8612,-8.3725 -26.5125,-2.46875 0,0 19.75,-4.08 27.5325,6.86875 0,0 -13.685,-10.1975 -28.6062,-3.48875 0,0 24.2062,-5.58125 32.4175,11.325 0,0 1.5025,4.24 -1.66375,9.01625 0,0 2.415,1.235 6.1175,0.0537 0,0 -2.65625,-0.295 -3.27375,-1.07375 -0.555,-1.88875 2.8225,-1.77 3.905,-2.37375 0,0 -1.905,-0.29625 -3.16625,-0.45625 v -1.69 c 0,0 3.19375,-0.7525 3.70375,-1.50375 0,0 -2.925,-0.23875 -3.7575,-0.1875 l 0.0275,-1.77125 c 0,0 2.12,0.215 3.78375,-1.315 l -4.02625,-0.34875 -0.24125,-1.315 c 0,0 3.19375,0.1075 3.86375,-1.1 l -4.15875,-0.3225 -1.315,-1.85125 c 0,0 3.22125,-0.0538 4.0525,-0.645 0,0 -2.97875,-0.61625 -4.99125,-0.72375 0,0 -0.67,-1.77125 1.3425,-1.4225 2.0125,0.34875 4.50875,2.335 5.6625,3.35375 1.15375,1.02 2.25375,2.765 1.905,3.1675 -0.34875,0.4025 -1.0125,0.28125 -0.73125,0.8725 0.2825,0.59 1.255,-0.73875 2.00625,0.42875 0.75125,1.1675 -1.58375,2.3225 -1.58375,2.3225 0,0 1.1675,0.4275 2.41625,-0.26875 1.2475,-0.69875 0.58875,2.56125 -3.34125,3.985 0,0 1.93375,1.08 4.29375,-1.74375 0,0 1.61,0.34875 -0.3225,2.19875 -1.93125,1.8525 -3.005,2.81875 -3.005,2.81875 0,0 2.2275,0.1075 4.08,-2.44125 0,0 1.06,1.8525 -4.0375,5.31375 0,0 2.3875,0.0538 4.07875,-2.04 0,0 0.42875,2.20125 -4.80375,6.03875 0,0 2.7375,0 5.125,-3.0325 0,0 -0.16,3.7025 -4.26625,6.01125 0,0 3.36375,0.58375 5.07125,-5.52875 1.70875,-6.11375 -2.1725,-16.155 -4.64125,-19.3212 -2.46875,-3.1675 -8.745,-12.665 -19.425,-18.5688 -10.6812,-5.90375 -21.0388,-11.0188 -26.9562,-12.1375 l -4.1025,2.3925" />
          <path
             inkscape:connector-curvature="0"
             id="path226"
             d="m 646.648,717.157 c 0,0 -0.16125,5.045 -3.38125,5.26 -3.22,0.215 -5.85,-3.1125 -8.8025,-6.7625 -2.95125,-3.65 -5.635,-5.20625 -6.70875,-0.805 -1.0725,4.4 5.31375,12.3438 9.5,15.1888 4.18625,2.84375 10.7625,4.51375 15.2962,3.5425 0,0 -14.1288,-1.24875 -20.1925,-11.07 0,0 7.835,10.1438 19.75,8.05 0,0 -11.5388,-0.6975 -18.1938,-8.9625 0,0 8.21125,8.64125 19.4825,5.09875 0,0 -7.40625,0.37625 -10.0362,-1.93125 0,0 4.5075,-1.28875 3.28625,-7.60875" />
          <path
             inkscape:connector-curvature="0"
             id="path228"
             d="m 632.17,710.436 c 0,0 3.14,3.7025 4.535,5.90375 1.39625,2.2 3.865,5.04375 5.90375,4.45375 2.04,-0.59 3.1675,-1.66375 3.3825,-2.95125 0,0 -2.37,2.90875 -4.73125,1.67375 -3.91875,-2.575 -6.47375,-8.235 -9.09,-9.08" />
          <path
             inkscape:connector-curvature="0"
             id="path230"
             d="m 633.416,709.047 c 0,0 2.68625,3.6825 3.41,4.73 0.725,1.04625 3.67625,4.37375 5.4475,4.025 1.77125,-0.34875 3.16625,-2.17375 3.3275,-2.6025 0,0 -2.8175,2.65625 -4.8025,1.12625 -1.98625,-1.52875 -6.095,-6.58 -7.3825,-7.27875" />
          <path
             inkscape:connector-curvature="0"
             id="path232"
             d="m 635.674,709.307 c 0,0 3.13875,5.32875 5.41875,5.43625 2.28125,0.1075 2.9,-1.2875 2.9,-1.2875 0,0 -2.14625,1.33875 -4.02375,-0.21875 -1.87875,-1.55625 -4.295,-3.93 -4.295,-3.93" />
          <path
             inkscape:connector-curvature="0"
             id="path234"
             d="m 595.206,717.246 c 0,0 10.1188,-8.66625 15.43,-11.25 0,0 -6.08625,0.70875 -13.8312,8.75375 l -1.59875,2.49625" />
          <path
             inkscape:connector-curvature="0"
             id="path236"
             d="m 598.133,711.402 c 0,0 6.22375,-5.03 10.8938,-7.445 0,0 -3.785,0.52125 -9.72875,4.795 l -1.165,2.65" />
          <path
             inkscape:connector-curvature="0"
             id="path238"
             d="m 600.734,705.976 c 0,0 2.28125,-2.0725 6.79,-4.21875 0,0 -3.96625,1.08125 -5.69375,2.305 L 600.734,705.976" />
          <path
             inkscape:connector-curvature="0"
             id="path240"
             d="m 603.415,701.58 c 0,0 2.995,-2.57375 3.82625,-2.60125 0,0 -1.05625,-0.385 -2.42,0.65375 L 603.415,701.58" />
          <path
             inkscape:connector-curvature="0"
             id="path242"
             d="m 391.814,671.16 c 0,0 -0.215,-13.2562 14.5438,-25.3325 0,0 -10.8675,11.5938 -13.7125,23.025 0,0 3.81,-12.505 13.8462,-20.18 0,0 -12.5588,14.4375 -13.2562,21.8438 0,0 5.09875,-13.9 16.155,-20.9312 0,0 -15.0812,14.8138 -15.4038,23.5088 0,0 3.9175,-11.9688 14.2762,-19.6975 0,0 -12.075,13.2562 -12.8262,20.3412 0,0 3.27375,-9.5 12.0212,-15.6188 0,0 -11.0562,12.935 -11.1638,18.4625 0,0 2.5225,-9.07 11.8625,-15.94 0,0 -11.3838,13.235 -11.1638,17.335 0,0 3.27375,-8.1025 10.8412,-13.47 0,0 -9.76875,11.4312 -10.2512,16.8525 0,0 3.5425,-8.5875 10.4125,-13.6862 0,0 -8.96375,10.7338 -9.55375,15.5638 0,0 5.20625,-10.8412 12.7738,-15.1875 0,0 -9.9825,10.09 -12.13,17.335 0,0 6.44125,-11.6462 15.1888,-16.5312 0,0 -12.6662,11.5938 -14.545,18.0338 0,0 5.3675,-9.23125 12.4512,-13.4712 0,0 -9.12375,8.1575 -11.5912,16.1012 0,0 3.43375,-7.1925 11.3775,-12.6662 0,0 -10.305,10.9488 -10.895,15.135 0,0 3.435,-6.81625 9.3925,-10.6812 0,0 -8.83,10.11 -8.91,13.6862 0,0 3.3275,-5.68875 8.91,-10.1438 0,0 -8.40375,10.6388 -8.64125,12.9888 0,0 6.9775,-10.8412 13.525,-14.0075 0,0 -11.6462,10.9475 -13.3638,17.4962 0,0 6.91,-10.0762 13.6188,-14.1025 0,0 -11.8738,12.5625 -12.8275,15.6188 0,0 6.495,-8.105 10.2512,-10.2512 0,0 -9.6425,10.0288 -11.0025,15.51 0,0 7.40625,-11.7525 12.935,-13.9 0,0 -11.9162,10.0112 -14.4388,22.2475 l -0.51,1.8525 -0.17375,-0.025 c 0,0 6.97,-20.8712 -5.72625,-42.2762 0,0 -2.09625,-3.45375 -2.465,-4.0125 l 0.16875,-0.825" />
          <path
             inkscape:connector-curvature="0"
             id="path244"
             d="m 454.47,681.281 6.94875,1.72875 0.41875,1.5175 -7.3675,-3.24625" />
          <path
             inkscape:connector-curvature="0"
             id="path246"
             d="m 452.994,683.025 c 0,0 4.38,0.83875 5.625,1.65375 L 455.624,684.56 c 0,0 -0.16,-0.6225 -2.63,-1.535" />
          <path
             inkscape:connector-curvature="0"
             id="path248"
             d="m 456.349,679.831 c 0.10875,-0.21 -10.7875,3.38125 -13.6325,4.535 l 3.91875,1.77125 c 0,0 -6.03875,-0.8575 -7.54125,-0.51 -1.5025,0.35 -1.74375,1.15375 -1.74375,1.15375 0,0 3.83625,-0.15375 6.65375,1.17125 0,0 -8.8825,-0.285 -10.815,0.44 -1.93125,0.725 -2.2275,1.4225 -2.2275,1.4225 0,0 11.0562,-0.1075 14.6788,1.95875 0,0 -10.0625,-1.85125 -15.3762,-0.6175 -5.31375,1.235 -11.0025,5.85 -11.0025,5.85 0,0 10.17,-7.99625 26.2175,-2.415 0,0 -18.1938,-4.07875 -26.0838,5.20625 0,0 11.2712,-9.285 27.8012,-1.61 0,0 -19.6962,-5.42 -28.3912,4.61625 0,0 11.8612,-8.3725 26.5138,-2.46875 0,0 -19.7512,-4.08 -27.5338,6.86875 0,0 13.6862,-10.1975 28.6062,-3.48875 0,0 -24.205,-5.58125 -32.4162,11.325 0,0 -1.5025,4.24 1.6625,9.01625 0,0 -2.415,1.235 -6.1175,0.0537 0,0 2.65625,-0.295 3.27375,-1.07375 0.555,-1.88875 -2.8225,-1.77 -3.905,-2.37375 0,0 1.905,-0.29625 3.16625,-0.45625 v -1.69 c 0,0 -3.1925,-0.7525 -3.7025,-1.50375 0,0 2.92375,-0.23875 3.75625,-0.1875 l -0.0263,-1.77125 c 0,0 -2.12,0.215 -3.78375,-1.315 l 4.025,-0.34875 0.24125,-1.315 c 0,0 -3.1925,0.1075 -3.86375,-1.1 l 4.15875,-0.3225 1.315,-1.85125 c 0,0 -3.22,-0.0538 -4.0525,-0.645 0,0 2.97875,-0.61625 4.99125,-0.72375 0,0 0.67,-1.77125 -1.34125,-1.4225 -2.01375,0.34875 -4.50875,2.335 -5.66375,3.35375 -1.1525,1.02 -2.25375,2.765 -1.905,3.1675 0.35,0.4025 1.0125,0.28125 0.73125,0.8725 -0.28125,0.59 -1.255,-0.73875 -2.00625,0.42875 -0.75125,1.1675 1.58375,2.3225 1.58375,2.3225 0,0 -1.1675,0.4275 -2.415,-0.26875 -1.2475,-0.69875 -0.59,2.56125 3.34,3.985 0,0 -1.93375,1.08 -4.29375,-1.74375 0,0 -1.61,0.34875 0.3225,2.19875 1.9325,1.8525 3.005,2.81875 3.005,2.81875 0,0 -2.2275,0.1075 -4.07875,-2.44125 0,0 -1.06125,1.8525 4.0375,5.31375 0,0 -2.38875,0.0538 -4.08,-2.04 0,0 -0.42875,2.20125 4.80375,6.03875 0,0 -2.73625,0 -5.125,-3.0325 0,0 0.16,3.7025 4.26625,6.01125 0,0 -3.36375,0.58375 -5.07125,-5.52875 -1.70875,-6.11375 2.1725,-16.155 4.64125,-19.3212 2.46875,-3.1675 8.745,-12.665 19.425,-18.5688 10.68,-5.90375 21.0375,-11.0188 26.9562,-12.1375 l 4.1025,2.3925" />
          <path
             inkscape:connector-curvature="0"
             id="path250"
             d="m 414.991,717.157 c 0,0 0.16125,5.045 3.38125,5.26 3.22125,0.215 5.85,-3.1125 8.8025,-6.7625 2.95125,-3.65 5.635,-5.20625 6.70875,-0.805 1.07375,4.4 -5.31375,12.3438 -9.5,15.1888 -4.18625,2.84375 -10.7625,4.51375 -15.295,3.5425 0,0 14.1275,-1.24875 20.1925,-11.07 0,0 -7.83625,10.1438 -19.7512,8.05 0,0 11.5388,-0.6975 18.195,-8.9625 0,0 -8.2125,8.64125 -19.4825,5.09875 0,0 7.40625,0.37625 10.0362,-1.93125 0,0 -4.50875,-1.28875 -3.2875,-7.60875" />
          <path
             inkscape:connector-curvature="0"
             id="path252"
             d="m 429.469,710.436 c 0,0 -3.14,3.7025 -4.535,5.90375 -1.395,2.2 -3.865,5.04375 -5.90375,4.45375 -2.03875,-0.59 -3.16625,-1.66375 -3.38125,-2.95125 0,0 2.37,2.90875 4.73,1.67375 3.91875,-2.575 6.47375,-8.235 9.09,-9.08" />
          <path
             inkscape:connector-curvature="0"
             id="path254"
             d="m 428.224,709.047 c 0,0 -2.68625,3.6825 -3.41125,4.73 -0.72375,1.04625 -3.67625,4.37375 -5.44625,4.025 -1.7725,-0.34875 -3.1675,-2.17375 -3.32875,-2.6025 0,0 2.8175,2.65625 4.80375,1.12625 1.98625,-1.52875 6.09375,-6.58 7.3825,-7.27875" />
          <path
             inkscape:connector-curvature="0"
             id="path256"
             d="m 425.965,709.307 c 0,0 -3.1375,5.32875 -5.41875,5.43625 -2.28125,0.1075 -2.9,-1.2875 -2.9,-1.2875 0,0 2.14625,1.33875 4.025,-0.21875 1.8775,-1.55625 4.29375,-3.93 4.29375,-3.93" />
          <path
             inkscape:connector-curvature="0"
             id="path258"
             d="m 466.434,717.246 c 0,0 -10.12,-8.66625 -15.4312,-11.25 0,0 6.08625,0.70875 13.8312,8.75375 l 1.6,2.49625" />
          <path
             inkscape:connector-curvature="0"
             id="path260"
             d="m 463.506,711.402 c 0,0 -6.22375,-5.03 -10.8925,-7.445 0,0 3.785,0.52125 9.7275,4.795 l 1.165,2.65" />
          <path
             inkscape:connector-curvature="0"
             id="path262"
             d="m 460.905,705.976 c 0,0 -2.28,-2.0725 -6.78875,-4.21875 0,0 3.965,1.08125 5.6925,2.305 l 1.09625,1.91375" />
          <path
             inkscape:connector-curvature="0"
             id="path264"
             d="m 458.224,701.58 c 0,0 -2.99375,-2.57375 -3.82625,-2.60125 0,0 1.05625,-0.385 2.42,0.65375 l 1.40625,1.9475" />
        </g>
        <path
           style="fill:#231f20;fill-rule:evenodd;filter:url(#filter2439)"
           inkscape:connector-curvature="0"
           id="path270"
           d="m 639.905,690.01 c -44.075,-37.1875 -173.85,-37.1888 -217.925,0 51.0112,-35.775 166.912,-35.775 217.925,0" />
      </g>
      <g
         style="fill:#ffffff;fill-rule:evenodd;filter:url(#filter2435)"
         id="g284" />
    </g>
  </g>
</svg>
