<?xml version="1.0" encoding="UTF-8" standalone="no"?>
<svg
   xmlns:dc="http://purl.org/dc/elements/1.1/"
   xmlns:cc="http://creativecommons.org/ns#"
   xmlns:rdf="http://www.w3.org/1999/02/22-rdf-syntax-ns#"
   xmlns:svg="http://www.w3.org/2000/svg"
   xmlns="http://www.w3.org/2000/svg"
   xmlns:sodipodi="http://sodipodi.sourceforge.net/DTD/sodipodi-0.dtd"
   xmlns:inkscape="http://www.inkscape.org/namespaces/inkscape"
   width="175.66367"
   height="175.66367"
   version="1.1"
   viewBox="0 0 175.66367 175.66367"
   id="svg16"
   sodipodi:docname="VC.svg"
   inkscape:version="0.92.4 (5da689c313, 2019-01-14)">
  <metadata
     id="metadata22">
    <rdf:RDF>
      <cc:Work
         rdf:about="">
        <dc:format>image/svg+xml</dc:format>
        <dc:type
           rdf:resource="http://purl.org/dc/dcmitype/StillImage" />
        <dc:title></dc:title>
      </cc:Work>
    </rdf:RDF>
  </metadata>
  <defs
     id="defs20" />
  <sodipodi:namedview
     pagecolor="#ffffff"
     bordercolor="#666666"
     borderopacity="1"
     objecttolerance="10"
     gridtolerance="10"
     guidetolerance="10"
     inkscape:pageopacity="0"
     inkscape:pageshadow="2"
     inkscape:window-width="1920"
     inkscape:window-height="1057"
     id="namedview18"
     showgrid="false"
     inkscape:zoom="2.2250293"
     inkscape:cx="58.079491"
     inkscape:cy="151.72649"
     inkscape:window-x="-8"
     inkscape:window-y="-8"
     inkscape:window-maximized="1"
     inkscape:current-layer="g841"
     fit-margin-top="0"
     fit-margin-left="0"
     fit-margin-right="0"
     fit-margin-bottom="0" />
  <g
     id="g837"
     transform="matrix(1.1383302,0,0,1.1383302,0.00605675,-411.14828)">
    <g
       id="g841">
      <path
         style="clip-rule:evenodd;fill:#ffffff;fill-rule:evenodd;stroke-width:3.88625932"
         d="M 108.20117 3.5058594 C 106.7242 3.5320899 105.2355 3.8114622 103.74609 4.3710938 C 99.770362 5.6108492 96.544489 8.0972897 94.554688 11.820312 L 52.333984 89.558594 L 34.697266 122.08984 L 30.726562 102.96094 C 29.731662 98.740464 27.495746 95.510047 24.017578 93.275391 C 20.543622 90.792009 16.568129 90.046805 12.347656 90.792969 C 8.123199 91.787869 4.8948123 94.017848 2.6601562 97.5 C 0.17677509 100.97783 -0.567168 104.94945 0.42382812 109.16992 L 10.113281 157.60547 C 10.610732 162.31975 12.09865 166.04264 14.582031 169.02734 C 17.065412 172.25679 20.299736 174.24339 24.271484 175.23828 C 33.711657 177.22808 41.906117 172.26006 49.107422 160.08789 C 53.083609 153.63242 63.514131 134.50856 79.158203 105.57617 L 121.875 26.472656 C 123.86089 22.745536 124.10886 18.777078 122.86523 14.552734 C 121.62548 10.580986 119.14291 7.3511652 115.41602 5.3652344 C 113.08934 4.12163 110.66279 3.4621418 108.20117 3.5058594 z M 106.68359 11.103516 L 111.64648 11.601562 C 113.13496 12.347727 114.12962 13.591033 114.62695 15.328125 C 115.37313 17.065331 115.12381 18.558394 114.12891 20.046875 L 80.601562 82.882812 L 41.855469 153.66797 C 40.234201 156.29327 38.408305 158.78496 36.392578 161.12109 C 32.91441 163.84922 29.932568 165.08996 26.703125 164.34766 C 24.549872 163.82273 22.682416 162.48821 21.488281 160.62109 C 20.38542 158.71878 19.707498 156.59942 19.501953 154.41016 L 9.5644531 105.48242 L 9.5644531 103.99414 C 9.5644531 102.50179 10.061729 101.26113 11.056641 100.02148 C 11.798912 98.777859 13.042805 98.031964 14.535156 97.787109 C 16.521087 97.538396 18.013473 97.788301 19.501953 98.779297 C 20.990434 99.778079 21.985764 101.01291 22.234375 102.75 L 30.927734 145.96875 C 35.396933 138.76358 48.564688 114.92129 70.669922 73.941406 L 102.95703 14.089844 C 103.7032 12.597493 105.19136 11.600966 106.68359 11.103516 z M 139.89453 54.769531 C 139.38241 54.760784 138.86154 54.771658 138.33398 54.802734 C 133.61219 55.047578 128.39804 57.034829 122.19141 60.019531 C 110.7694 65.732355 100.33384 74.919032 91.394531 87.335938 C 90.399642 88.575693 89.410238 89.822144 88.664062 91.306641 C 86.88031 94.043699 85.381196 96.956606 84.193359 100 C 81.709978 105.71282 79.725369 110.92893 78.730469 116.14453 C 76.002347 129.30704 78.236207 139.24098 85.4375 145.69531 C 87.920881 147.92997 90.901267 149.42307 94.126953 150.41797 C 99.342327 151.90645 104.81162 151.41233 110.76953 149.17383 C 117.22853 146.69045 124.67327 141.72823 132.62109 134.51953 L 145.03711 123.58984 C 203.05567 70.875241 162.63626 73.69756 152.74023 78.396484 C 154.22506 75.923678 154.99687 73.089311 154.9707 70.205078 L 154.9707 68.712891 C 154.47715 64.492418 152.74124 61.013242 149.50781 58.28125 C 146.68544 55.890757 143.47939 54.830763 139.89453 54.769531 z M 139.50781 61.777344 C 141.24502 61.777344 142.98696 62.274631 144.23047 63.269531 C 145.46624 64.509287 146.22007 66.001189 146.46094 67.738281 L 146.46094 68.236328 C 146.46094 69.97342 145.9663 71.215323 144.72266 72.455078 C 143.75772 73.707139 142.32677 74.515307 140.75586 74.691406 L 137.77148 75.4375 C 135.29162 75.998959 132.93479 77.008818 130.81836 78.417969 C 123.12347 82.642312 115.91332 89.345262 109.45898 98.283203 C 106.72688 102.25495 104.49371 106.97765 102.50391 112.44141 C 101.01543 117.1632 100.26758 121.13477 100.26758 124.61328 C 100.26758 125.85304 100.51301 126.84837 100.76562 127.3457 C 104.48865 127.10087 110.45076 123.37409 119.14453 115.92383 L 132.0625 104.49805 L 150.1875 88.855469 C 152.17048 87.203103 154.33786 85.78532 156.64648 84.630859 C 159.37859 83.391104 161.86229 83.391104 164.3418 84.630859 C 174.55151 88.586318 137.36529 117.24594 127.5957 125.61133 C 110.95104 139.77329 99.277249 143.74024 92.076172 137.0332 C 87.358249 132.564 86.114389 125.11536 88.597656 114.43555 C 89.592534 110.21507 91.08446 105.74034 93.066406 101.27148 C 95.052337 97.047141 97.043366 93.573753 99.029297 90.837891 C 107.47423 79.415885 116.41188 71.464691 126.59766 66.25 C 129.82323 64.757649 132.55636 63.51766 135.5332 62.771484 L 139.50781 61.777344 z M 141.80664 85.347656 L 135.09375 91.310547 L 125.91211 99.257812 L 113.49023 110.4375 C 117.95943 102.9836 123.18012 96.275128 130.13281 91.308594 C 131.12771 90.317598 132.37157 89.572347 133.61133 88.826172 C 136.09471 87.586416 138.82581 86.093946 141.80664 85.347656 z "
         transform="matrix(0.87847972,0,0,0.87847972,-0.00532073,361.18543)"
         id="path10" />
    </g>
  </g>
</svg>
